PathFileType  4	(X/Y/Z) C:\Users\antoi\Documents\MyRepositories\mobilecap\ResultsAnalysis
DataRate	CameraRate	NumFrames	NumMarkers	Units	OrigDataRate	OrigDataStartFrame	OrigNumFrames
100.0	100.0	4	51	mm	100.0	202	268
Frame#	Time	r_knee			r_shank_antsup			r_ankle			r_calc			r_5meta			r_toe			L_knee			L_shank_antsup			L_ankle			L_calc			L_5meta			L_toe			r_sh2			r_sh3			r_sh4			L_sh2			L_sh3			r_thigh1			r_thigh2			r_thigh3			r_thigh4			r_thigh5			L_thigh1			L_thigh2			L_thigh3			L_thigh4			r.ASIS			r.PSIS			L.ASIS			L.PSIS			C7			R_Shoulder			L_Shoulder			R_Sternum			L_Sternum			R_humerus			R_elbow_med			R_elbow_lat			R_forearm			R_wrist_radius			R_wrist_ulna			L_humerus			L_elbow_med			L_elbow_lat			L_forearm			L_wrist_radius			L_wrist_ulna			R_HJC			L_HJC			R_HJC_reg			L_HJC_reg			
		X1	Y1	Z1	X2	Y2	Z2	X3	Y3	Z3	X4	Y4	Z4	X5	Y5	Z5	X6	Y6	Z6	X7	Y7	Z7	X8	Y8	Z8	X9	Y9	Z9	X10	Y10	Z10	X11	Y11	Z11	X12	Y12	Z12	X13	Y13	Z13	X14	Y14	Z14	X15	Y15	Z15	X16	Y16	Z16	X17	Y17	Z17	X18	Y18	Z18	X19	Y19	Z19	X20	Y20	Z20	X21	Y21	Z21	X22	Y22	Z22	X23	Y23	Z23	X24	Y24	Z24	X25	Y25	Z25	X26	Y26	Z26	X27	Y27	Z27	X28	Y28	Z28	X29	Y29	Z29	X30	Y30	Z30	X31	Y31	Z31	X32	Y32	Z32	X33	Y33	Z33	X34	Y34	Z34	X35	Y35	Z35	X36	Y36	Z36	X37	Y37	Z37	X38	Y38	Z38	X39	Y39	Z39	X40	Y40	Z40	X41	Y41	Z41	X42	Y42	Z42	X43	Y43	Z43	X44	Y44	Z44	X45	Y45	Z45	X46	Y46	Z46	X47	Y47	Z47	X48	Y48	Z48	X49	Y49	Z49	X50	Y50	Z50	X51	Y51	Z51	

202	2.01000000	-148.94000	543.84305	-452.58913	-139.47553	459.91341	-434.70896	-293.58019	135.13524	-451.10765	-362.30436	95.92163	-507.27277	-185.53841	39.97327	-402.18037	-139.78115	56.55080	-457.97559	-163.21236	539.32891	-776.86517	-162.31574	419.73132	-795.85806	-308.68434	128.04203	-756.32206	-382.83994	92.63056	-704.57066	-192.19435	32.82901	-814.49733	-156.67507	55.48326	-754.05393	-172.67060	352.16939	-426.15233	-210.74524	483.77946	-419.60947	-253.27012	376.59870	-419.38814	-244.51361	456.76636	-794.74477	-279.74291	341.05838	-788.58592	-169.44419	866.15996	-415.33426	-126.40589	765.33250	-428.45728	-169.50671	717.74832	-403.38446	-273.70037	819.31415	-420.14303	-223.28468	713.64870	-416.85859	-195.22435	863.70534	-793.94679	-143.54618	735.20630	-798.16189	-302.54685	817.76846	-771.20572	-244.26554	692.48881	-787.56883	-177.36394	1037.33984	-475.89073	-367.03836	1099.07388	-543.40349	-196.72224	1026.22326	-734.51776	-375.51378	1093.00816	-647.91187	-340.48594	1595.87731	-602.40674	-280.57430	1622.98285	-478.88570	-261.81946	1624.79855	-721.38917	-177.11146	1549.50500	-571.42394	-179.73460	1547.09724	-622.17270	-148.70577	1660.52552	-278.66069	-31.79763	1613.65068	-237.99965	-87.22704	1679.88989	-209.69415	-28.45739	1783.61534	-321.63852	10.88336	1834.22881	-414.27302	30.02815	1851.54284	-372.76650	-157.17027	1591.24789	-946.03474	-76.86386	1496.95180	-1006.85202	-112.98052	1571.20897	-1026.79481	-10.16470	1686.86558	-940.43624	30.23145	1736.70036	-871.54432	55.10304	1739.51710	-899.20716	-271.14220	970.31490	-473.67559	-285.42339	959.82757	-703.36066	-262.56134	973.08569	-502.24695	-276.38635	963.19096	-672.73158	
203	2.02000000	-168.56161	563.99827	-450.36938	-156.96233	480.04781	-432.88325	-288.68342	145.38128	-449.78157	-356.11665	111.27098	-507.01328	-183.65192	42.31128	-401.62561	-137.89555	58.03665	-457.01237	-180.87799	557.81959	-773.25666	-175.99356	437.76135	-793.27784	-304.86773	136.42224	-757.57606	-377.93953	105.34561	-704.96439	-191.45743	33.55185	-814.20706	-155.89294	56.21837	-754.24627	-183.93187	370.36271	-424.41245	-229.10749	499.32093	-418.38130	-265.45040	390.27585	-418.81713	-260.07133	470.08176	-791.30530	-288.67321	352.61969	-786.30415	-166.82846	889.14136	-416.76003	-130.75763	785.36697	-428.81267	-176.81510	741.05678	-402.76163	-273.97306	849.22016	-419.66260	-230.85369	740.34552	-416.24476	-192.57429	884.69792	-793.45289	-149.72087	753.18022	-797.24868	-302.66508	846.09354	-771.58441	-252.51220	717.29520	-786.35582	-167.19144	1066.99623	-477.82539	-357.14574	1126.44525	-544.99642	-186.99145	1054.52633	-736.77382	-365.37648	1120.28427	-650.09017	-345.40024	1622.50031	-600.69468	-289.89145	1650.81502	-480.15605	-270.91563	1654.57733	-717.87589	-180.57902	1581.41261	-570.16021	-181.51839	1579.97474	-623.10576	-164.02511	1695.22127	-278.97758	-48.02229	1650.76881	-234.41453	-105.30156	1716.60797	-207.41775	-47.23004	1821.25267	-318.90371	-6.54226	1873.95984	-410.83241	11.42291	1890.44682	-368.68473	-170.88867	1631.92807	-944.41061	-92.04060	1539.32132	-1012.06247	-129.02653	1614.16300	-1027.43495	-26.03882	1727.99546	-940.39421	16.46235	1776.00685	-869.68795	39.80509	1781.24191	-899.61341	-260.15062	999.00945	-475.33316	-274.78899	987.54628	-704.95042	-252.01253	1000.97787	-504.38029	-265.39000	990.96601	-675.16629	
204	2.03000000	-189.03710	586.49565	-449.32402	-175.70353	503.63389	-431.01819	-280.61350	159.11389	-447.83549	-346.73601	131.73274	-506.75033	-181.36517	46.12243	-401.38375	-134.75776	60.19692	-456.15235	-199.97819	579.13073	-768.52345	-190.48000	459.02684	-789.92953	-298.49688	148.33953	-758.64955	-369.78028	123.03350	-704.70677	-190.29395	35.11708	-813.73145	-154.04223	58.41132	-754.72227	-195.73567	392.06299	-422.81124	-248.48300	517.58449	-418.01199	-277.81027	406.54271	-419.06297	-276.31075	485.99553	-786.55043	-297.53457	366.95997	-783.38533	-164.42887	912.92771	-418.20128	-136.26229	806.28092	-429.48713	-184.56941	765.79483	-402.55567	-274.02587	880.46974	-419.08020	-238.61015	768.83644	-415.86611	-190.02457	907.52157	-792.43395	-156.31427	773.44543	-795.70303	-302.80951	876.43047	-772.49447	-260.94267	744.48352	-785.10175	-157.18633	1096.74392	-479.66891	-347.15600	1154.33039	-546.40980	-176.99230	1083.84249	-738.90314	-354.93268	1148.48913	-652.38764	-349.85687	1648.83359	-598.41509	-298.97616	1677.74057	-481.37668	-280.14833	1682.95313	-715.00974	-182.84404	1612.28024	-568.94420	-184.61867	1610.75917	-623.03659	-179.81001	1726.21426	-278.16411	-65.24232	1683.30004	-229.82581	-123.89338	1748.98105	-204.10528	-66.02997	1853.91517	-315.36770	-23.64143	1908.70426	-405.22123	-6.33951	1923.94075	-363.38649	-186.49042	1669.17672	-943.29734	-109.04388	1577.68951	-1016.97442	-146.16421	1653.01711	-1027.87645	-41.80487	1764.46422	-941.07752	3.45284	1810.64136	-869.06279	25.14095	1817.65471	-900.79262	-249.36378	1027.88777	-477.23859	-263.97816	1016.27896	-706.84969	-241.64348	1029.10250	-506.84884	-254.19973	1019.67150	-677.93196	
205	2.04000000	-211.32713	610.65429	-449.23299	-194.46710	529.79946	-429.98523	-270.20994	177.35687	-445.44627	-334.44919	158.16994	-507.15115	-179.06638	53.26083	-403.11353	-129.78216	65.43850	-455.01403	-220.80260	602.79397	-763.23559	-205.39499	483.79816	-786.20108	-288.85122	164.75875	-760.23062	-357.42148	146.81597	-703.18140	-188.82251	38.64036	-812.78993	-149.20648	62.14566	-756.03993	-206.98443	417.08250	-421.01538	-267.97243	538.31117	-418.70809	-289.22432	424.81953	-419.87021	-292.65214	504.56204	-780.24824	-305.30537	384.33769	-780.37093	-162.29112	936.70165	-419.71926	-142.39534	827.66727	-430.21988	-192.32677	791.25185	-402.95453	-273.80397	911.85015	-418.36106	-246.24038	798.01880	-415.74036	-187.65659	931.32246	-791.19876	-163.11024	795.32744	-793.49942	-302.82706	907.77279	-773.85290	-269.50166	773.13617	-783.73787	-147.53117	1126.04160	-481.31891	-337.14456	1182.33533	-547.92362	-167.13618	1113.46549	-740.48378	-344.52349	1177.05543	-654.53066	-353.35385	1674.22801	-596.11598	-307.54349	1703.19773	-483.09077	-289.04915	1709.18532	-712.44807	-185.07470	1641.72743	-567.84382	-188.72192	1639.55244	-622.92666	-195.86700	1753.70189	-275.84295	-81.91313	1712.57343	-222.47679	-142.83066	1777.35849	-199.75719	-84.28969	1882.27550	-310.39402	-40.37681	1938.43641	-398.20175	-23.13918	1952.60289	-357.05009	-203.26886	1702.47717	-942.72688	-126.92134	1612.08480	-1021.53377	-163.72489	1687.73529	-1028.54310	-56.68498	1796.55174	-942.60885	-8.71498	1840.84193	-870.16730	11.08807	1848.86233	-903.36641	-239.08807	1056.54363	-479.14347	-253.35219	1045.34621	-708.79624	-231.56951	1057.28872	-509.16554	-243.41217	1048.81482	-680.28555	
